<svg width="85" height="43" viewBox="0 0 85 43" fill="none" xmlns="http://www.w3.org/2000/svg">
<path d="M14.0267 42.2451C18.4086 42.2451 21.9993 40.8756 24.3575 38.5786C26.1224 36.8134 27.1721 34.4549 27.1721 31.7161C27.1721 29.2369 26.2593 27.015 24.5554 25.3113C22.8512 23.6072 20.432 22.3746 17.3589 21.7811L12.3226 20.8077C10.2384 20.4119 9.05149 19.3776 9.05149 17.932C9.05149 16.0454 10.8771 14.7369 13.829 14.7369C15.6545 14.7369 17.2218 15.3302 18.2716 16.3648C18.9259 17.08 19.3822 18.0082 19.5192 19.0427L26.7766 17.4149C26.5787 15.3303 25.605 13.4893 24.0989 11.9832C21.7404 9.62466 18.089 8.13377 13.7681 8.13377C9.78156 8.13377 6.44971 9.44237 4.1524 11.5266C2.18961 13.3524 1.07896 15.8475 1.07896 18.5865C1.07896 21.0056 1.87018 23.0293 3.43719 24.5962C5.00431 26.1633 7.30173 27.3351 10.2989 28.0651L15.2741 29.2369C17.7542 29.8303 18.8649 30.7425 18.8649 32.3709C18.8649 34.3945 17.0391 35.5812 14.0266 35.5812C11.8662 35.5812 10.1012 34.8663 8.99068 33.6794C8.19947 32.8879 7.74311 31.8534 7.6822 30.6667L0.227051 32.2946C0.424995 34.5159 1.47462 36.4785 3.04197 38.0455C5.53711 40.6775 9.52326 42.2451 14.0267 42.2451ZM69.1952 42.2451C74.0336 42.2451 77.7608 40.4806 80.302 38.0002C82.3251 36.0373 83.5729 33.7552 84.2271 31.3972L76.5741 28.8405C76.2547 30.0123 75.6002 31.2599 74.5508 32.2336C73.3028 33.4049 71.6138 34.2572 69.195 34.2572C66.9732 34.2572 64.8743 33.4049 63.3677 31.8992C61.8616 30.3319 60.9487 28.0342 60.9487 25.1586C60.9487 22.2225 61.8616 20.0009 63.3677 18.4339C64.8743 16.9278 66.8974 16.1517 69.1186 16.1517C71.4772 16.1517 73.1052 16.9429 74.2765 18.1145C75.2502 19.1036 75.8435 20.3358 76.2391 21.5833L84.0139 18.9663C83.4205 16.6841 82.1878 14.3867 80.3475 12.5C77.7303 9.94421 73.9417 8.11845 68.9058 8.11845C64.2651 8.11845 60.081 9.8833 57.0689 12.8958C54.1022 15.9693 52.2761 20.2142 52.2761 25.1894C52.2761 30.1644 54.178 34.4092 57.2364 37.4829C60.2486 40.4806 64.4941 42.2451 69.1952 42.2451ZM42.7974 42.2451C46.1905 42.2451 48.6098 41.195 49.6597 40.2824V33.2228C48.8684 33.8162 47.3014 34.5313 45.2776 34.5313C43.8324 34.5313 42.7974 34.1965 42.0064 33.4812C41.3521 32.8269 41.0327 31.716 41.0327 30.2104V0.282959H32.4061V9.10739H49.6597V17.4756H32.3908V32.3096C32.3908 35.3228 33.3038 37.7419 34.9469 39.4306C36.7727 41.2714 39.4504 42.2451 42.7974 42.2451Z" fill="white"/>
</svg>
